<svg version="1.1"
      xmlns="http://www.w3.org/2000/svg"
      xmlns:xlink="http://www.w3.org/1999/xlink"  id="snapshot-87493" width="250" height="250" viewBox="0 0 250 250"><desc>This image was made on Patterninja.com</desc><defs>
<!-- image 41368 -->
<g id="transformed-41368" data-image="41368" transform="translate(36.87629782821457, 3.2497640261846996) rotate(23, 42.583702171785426, 55.1602359738153)"><g><svg version="1.1" width="85.16740434357085px" height="110.3204719476306px" viewBox="0 0 85.16740434357085 110.3204719476306"><g id="original-41368"><svg xmlns="http://www.w3.org/2000/svg" version="1.1" viewBox="0 0 439 568" xmlns:xlink="http://www.w3.org/1999/xlink" preserveAspectRatio="xMidYMid meet">
  <path d="M174.5 23.1c-57.2 4-95.3 15.8-105.2 32.7-1.4 2.3-2.9 5.8-3.3 7.8-.5 2.2.4 18.9 2.6 44.7C73 162.7 89.7 368 96.1 448c2.9 34.9 5.6 64 6.1 64.7 3.4 4.3 26.8 15.5 45.1 21.6 23.7 7.9 44.4 11.1 71.7 11.1 38.2 0 70.6-7.9 106.1-25.7l12.4-6.2 2.2-27.5c2.6-32.4 12.9-158.8 24.8-305.5 4.8-57.8 8.7-107.9 8.7-111.5.1-7.8-2.2-13.1-8.4-19.1C350.4 36 314.4 26.5 262.5 23c-17.5-1.1-70.7-1.1-88 .1zm87 34.9c23.7 1.6 58 7 63.3 9.9 2.9 1.6-23.4 6.9-49.1 9.8-12 1.4-23.9 1.7-56.2 1.7-48.9 0-68.5-1.7-97.9-8.6-10.3-2.4-10-2.8 3-5.7 35.1-7.7 86.7-10.4 136.9-7.1zm-145 47.5c27.3 6.5 56.7 9 104 8.9 48.5 0 78-2.7 105.5-9.8 5.2-1.3 9.6-2.3 9.7-2.2.2.2-1.1 16.4-2.7 36.2-1.6 19.7-4.3 52.8-6 73.4-1.6 20.6-6.6 81.8-11 136s-8.7 107.7-9.6 119c-.8 11.3-1.7 21.4-1.9 22.5-.8 4.1-32.1 14.9-53.5 18.6-36.8 6.3-76.6 1.4-110.2-13.5-5-2.2-5.8-3-6.2-5.8-.3-1.8-1.9-20.4-3.6-41.3-1.6-20.9-5-63-7.5-93.5s-6.1-74.9-8-98.5c-1.9-23.7-5.3-65.3-7.5-92.5-2.2-27.2-4.3-52.2-4.6-55.4-.6-5.5-.5-5.9 1.2-5.2 1.1.4 6.4 1.8 11.9 3.1z" fill="rgba(0, 0, 0, 1)" stroke="none"/>
  <path d="M189.5 179.7c-17.7 1.5-34.6 4.9-44.2 8.9-10.6 4.4-10.1-.9-5.5 55.6 2.2 27.1 7.1 87.1 10.8 133.3 5.4 66.7 7 84.3 8.2 85.2 1.9 1.6 20.6 7.8 29.2 9.7 19.3 4.3 46.1 4.6 63 .7 9-2 21.2-6.2 27-9.1l3.5-1.8 3.3-40.8c1.8-22.5 5.5-68.1 8.2-101.4 10.7-131.1 10.3-125 8.8-126.7-1.7-2.1-12.3-6.9-17.1-7.8l-3.7-.7v31c0 55.8-4.1 101.2-12.6 139.1-9.9 44.1-27.6 66.9-55.7 71.6-6.9 1.1-13.1-3.6-13.7-10.5-.6-6.3.1-8.3 3.8-11.9 2.7-2.7 5.2-4.1 9.2-4.9 14.1-3.2 24.2-17.7 31.1-44.7 6.9-27.4 9.6-60.9 10.6-131.1l.6-43.1-6.9-.6c-6.9-.7-50.4-.7-57.9 0z" fill="rgba(0, 0, 0, 1)" stroke="none"/>
</svg>
</g></svg></g></g>
<!-- /image 41368 -->

<!-- image 17354 -->
<g id="transformed-17354" data-image="17354" transform="translate(-96.5, -125) rotate(0, 96.5, 125)"><g><svg version="1.1" width="193px" height="250px" viewBox="0 0 193 250"><g id="original-17354"><svg xmlns="http://www.w3.org/2000/svg" version="1.1" viewBox="0 0 439 568" xmlns:xlink="http://www.w3.org/1999/xlink" preserveAspectRatio="xMidYMid meet">
  <path d="M174.5 23.1c-57.2 4-95.3 15.8-105.2 32.7-1.4 2.3-2.9 5.8-3.3 7.8-.5 2.2.4 18.9 2.6 44.7C73 162.7 89.7 368 96.1 448c2.9 34.9 5.6 64 6.1 64.7 3.4 4.3 26.8 15.5 45.1 21.6 23.7 7.9 44.4 11.1 71.7 11.1 38.2 0 70.6-7.9 106.1-25.7l12.4-6.2 2.2-27.5c2.6-32.4 12.9-158.8 24.8-305.5 4.8-57.8 8.7-107.9 8.7-111.5.1-7.8-2.2-13.1-8.4-19.1C350.4 36 314.4 26.5 262.5 23c-17.5-1.1-70.7-1.1-88 .1zm87 34.9c23.7 1.6 58 7 63.3 9.9 2.9 1.6-23.4 6.9-49.1 9.8-12 1.4-23.9 1.7-56.2 1.7-48.9 0-68.5-1.7-97.9-8.6-10.3-2.4-10-2.8 3-5.7 35.1-7.7 86.7-10.4 136.9-7.1zm-145 47.5c27.3 6.5 56.7 9 104 8.9 48.5 0 78-2.7 105.5-9.8 5.2-1.3 9.6-2.3 9.7-2.2.2.2-1.1 16.4-2.7 36.2-1.6 19.7-4.3 52.8-6 73.4-1.6 20.6-6.6 81.8-11 136s-8.7 107.7-9.6 119c-.8 11.3-1.7 21.4-1.9 22.5-.8 4.1-32.1 14.9-53.5 18.6-36.8 6.3-76.6 1.4-110.2-13.5-5-2.2-5.8-3-6.2-5.8-.3-1.8-1.9-20.4-3.6-41.3-1.6-20.9-5-63-7.5-93.5s-6.1-74.9-8-98.5c-1.9-23.7-5.3-65.3-7.5-92.5-2.2-27.2-4.3-52.2-4.6-55.4-.6-5.5-.5-5.9 1.2-5.2 1.1.4 6.4 1.8 11.9 3.1z" fill="rgba(0, 0, 0, 1)" stroke="none"/>
  <path d="M189.5 179.7c-17.7 1.5-34.6 4.9-44.2 8.9-10.6 4.4-10.1-.9-5.5 55.6 2.2 27.1 7.1 87.1 10.8 133.3 5.4 66.7 7 84.3 8.2 85.2 1.9 1.6 20.6 7.8 29.2 9.7 19.3 4.3 46.1 4.6 63 .7 9-2 21.2-6.2 27-9.1l3.5-1.8 3.3-40.8c1.8-22.5 5.5-68.1 8.2-101.4 10.7-131.1 10.3-125 8.8-126.7-1.7-2.1-12.3-6.9-17.1-7.8l-3.7-.7v31c0 55.8-4.1 101.2-12.6 139.1-9.9 44.1-27.6 66.9-55.7 71.6-6.9 1.1-13.1-3.6-13.7-10.5-.6-6.3.1-8.3 3.8-11.9 2.7-2.7 5.2-4.1 9.2-4.9 14.1-3.2 24.2-17.7 31.1-44.7 6.9-27.4 9.6-60.9 10.6-131.1l.6-43.1-6.9-.6c-6.9-.7-50.4-.7-57.9 0z" fill="rgba(0, 0, 0, 1)" stroke="none"/>
</svg>
</g></svg></g></g>
<!-- /image 17354 -->
</defs><rect x="0" y="0" width="250" height="250" fill="rgba(242, 137, 7, 1)"></rect><use xlink:href="#transformed-41368" transform="translate(-250, -250)"></use><use xlink:href="#transformed-41368" transform="translate(0, -250)"></use><use xlink:href="#transformed-41368" transform="translate(250, -250)"></use><use xlink:href="#transformed-41368" transform="translate(-250, 0)"></use><use xlink:href="#transformed-41368" transform="translate(0, 0)"></use><use xlink:href="#transformed-41368" transform="translate(250, 0)"></use><use xlink:href="#transformed-41368" transform="translate(-250, 250)"></use><use xlink:href="#transformed-41368" transform="translate(0, 250)"></use><use xlink:href="#transformed-41368" transform="translate(250, 250)"></use><use xlink:href="#transformed-17354" transform="translate(-250, -250)"></use><use xlink:href="#transformed-17354" transform="translate(0, -250)"></use><use xlink:href="#transformed-17354" transform="translate(250, -250)"></use><use xlink:href="#transformed-17354" transform="translate(-250, 0)"></use><use xlink:href="#transformed-17354" transform="translate(0, 0)"></use><use xlink:href="#transformed-17354" transform="translate(250, 0)"></use><use xlink:href="#transformed-17354" transform="translate(-250, 250)"></use><use xlink:href="#transformed-17354" transform="translate(0, 250)"></use><use xlink:href="#transformed-17354" transform="translate(250, 250)"></use></svg>