<svg xmlns="http://www.w3.org/2000/svg" xmlns:xlink="http://www.w3.org/1999/xlink" style="margin:auto;background:#f1f2f3;display:block;z-index:1;position:relative" width="2560" height="1331" preserveAspectRatio="xMidYMid" viewBox="0 0 2560 1331">
<g transform="translate(1280,665.5) scale(1,1) translate(-1280,-665.5)"><path id="path0" d="M 1138.3997686605026 480.49778064353893
c 0 26.75432399239127 -6.546270764095736 7.684752636112386 -14.231023400208123 7.684752636112386
S 1109.9377218600862 507.2521046359302 1109.9377218600862 480.49778064353893
s 6.546270764095736 -7.684752636112386 14.231023400208123 -7.684752636112386
S 1138.3997686605026 453.74345665114765 1138.3997686605026 480.49778064353893
z" fill="none" stroke="none"></path>
<circle cx="0" cy="0" r="10.22094604185882" fill="#8f7787">
  <animateMotion begin="-9.227038494358245s" dur="14.76s" repeatCount="indefinite">
    <mpath xlink:href="#path0"></mpath>
  </animateMotion>
</circle><path id="path1" d="M 1315.6300843046142 612.7976019027204
c 0 34.705047200008096 -8.491660485108362 9.968471004257644 -18.460131489366006 9.968471004257644
S 1278.7098213258823 647.5026491027286 1278.7098213258823 612.7976019027204
s 8.491660485108362 -9.968471004257644 18.460131489366006 -9.968471004257644
S 1315.6300843046142 578.0925547027123 1315.6300843046142 612.7976019027204
z" fill="none" stroke="none"></path>
<circle cx="0" cy="0" r="6.505338867600948" fill="#8f7787">
  <animateMotion begin="-3.5032379213229254s" dur="14.76s" repeatCount="indefinite">
    <mpath xlink:href="#path1"></mpath>
  </animateMotion>
</circle><path id="path2" d="M 2066.151180883763 1023.5177816479143
c 0 21.84560193202659 -5.345200472729909 6.274800554943807 -11.620001027673716 6.274800554943807
S 2042.9111788284156 1045.3633835799408 2042.9111788284156 1023.5177816479143
s 5.345200472729909 -6.274800554943807 11.620001027673716 -6.274800554943807
S 2066.151180883763 1001.6721797158876 2066.151180883763 1023.5177816479143
z" fill="none" stroke="none"></path>
<circle cx="0" cy="0" r="11.557019731742733" fill="#8f7787">
  <animateMotion begin="-2.5835027755003206s" dur="14.76s" repeatCount="indefinite">
    <mpath xlink:href="#path2"></mpath>
  </animateMotion>
</circle><path id="path3" d="M 1091.1843628179474 1180.724855407975
c 0 21.97037587019755 -5.375730266112166 6.310639877609934 -11.686370143722101 6.310639877609934
S 1067.8116225305032 1202.6952312781725 1067.8116225305032 1180.724855407975
s 5.375730266112166 -6.310639877609934 11.686370143722101 -6.310639877609934
S 1091.1843628179474 1158.7544795377773 1091.1843628179474 1180.724855407975
z" fill="none" stroke="none"></path>
<circle cx="0" cy="0" r="8.705251722005347" fill="#f48907">
  <animateMotion begin="-3.3715827846035267s" dur="14.76s" repeatCount="indefinite">
    <mpath xlink:href="#path3"></mpath>
  </animateMotion>
</circle><path id="path4" d="M 2398.8575010615154 1307.4875090409835
c 0 22.503147620873005 -5.506089311490203 6.463670061314587 -11.96975937280479 6.463670061314587
S 2374.917982315906 1329.9906566618565 2374.917982315906 1307.4875090409835
s 5.506089311490203 -6.463670061314587 11.96975937280479 -6.463670061314587
S 2398.8575010615154 1284.9843614201104 2398.8575010615154 1307.4875090409835
z" fill="none" stroke="none"></path>
<circle cx="0" cy="0" r="7.786239025662785" fill="#6d71b2">
  <animateMotion begin="-11.851844769404822s" dur="14.76s" repeatCount="indefinite">
    <mpath xlink:href="#path4"></mpath>
  </animateMotion>
</circle><path id="path5" d="M 1277.5537321789752 892.4942788348758
c 0 34.74242032564502 -8.500804973296122 9.979205838217187 -18.480010811513306 9.979205838217187
S 1240.5937105559487 927.2366991605209 1240.5937105559487 892.4942788348758
s 8.500804973296122 -9.979205838217187 18.480010811513306 -9.979205838217187
S 1277.5537321789752 857.7518585092307 1277.5537321789752 892.4942788348758
z" fill="none" stroke="none"></path>
<circle cx="0" cy="0" r="11.399170719187639" fill="#8f7787">
  <animateMotion begin="-4.377866094373736s" dur="14.76s" repeatCount="indefinite">
    <mpath xlink:href="#path5"></mpath>
  </animateMotion>
</circle><path id="path6" d="M 729.8172439408543 157.38828303552384
c 0 21.65433953834328 -5.298402227466973 6.2198634844177505 -11.518265711884723 6.2198634844177505
S 706.7807125170848 179.0426225738671 706.7807125170848 157.38828303552384
s 5.298402227466973 -6.2198634844177505 11.518265711884723 -6.2198634844177505
S 729.8172439408543 135.73394349718058 729.8172439408543 157.38828303552384
z" fill="none" stroke="none"></path>
<circle cx="0" cy="0" r="10.716491455590402" fill="#8f7787">
  <animateMotion begin="-13.132600471947985s" dur="14.76s" repeatCount="indefinite">
    <mpath xlink:href="#path6"></mpath>
  </animateMotion>
</circle><path id="path7" d="M 1238.2382265514893 98.2968831131207
c 0 35.135931350194554 -8.597089585685902 10.092235600587799 -18.6893251862737 10.092235600587799
S 1200.859576178942 133.43281446331525 1200.859576178942 98.2968831131207
s 8.597089585685902 -10.092235600587799 18.6893251862737 -10.092235600587799
S 1238.2382265514893 63.160951762926146 1238.2382265514893 98.2968831131207
z" fill="none" stroke="none"></path>
<circle cx="0" cy="0" r="10.116726099867055" fill="#d28332">
  <animateMotion begin="-3.320925250859017s" dur="14.76s" repeatCount="indefinite">
    <mpath xlink:href="#path7"></mpath>
  </animateMotion>
</circle><path id="path8" d="M 1737.3711331476704 984.5171014460799
c 0 36.34097710583479 -8.891941206746809 10.438365764441906 -19.330306971188715 10.438365764441906
S 1698.710519205293 1020.8580785519147 1698.710519205293 984.5171014460799
s 8.891941206746809 -10.438365764441906 19.330306971188715 -10.438365764441906
S 1737.3711331476704 948.1761243402451 1737.3711331476704 984.5171014460799
z" fill="none" stroke="none"></path>
<circle cx="0" cy="0" r="11.605654389683965" fill="#f48907">
  <animateMotion begin="-11.077938681930942s" dur="14.76s" repeatCount="indefinite">
    <mpath xlink:href="#path8"></mpath>
  </animateMotion>
</circle><path id="path9" d="M 596.014578048299 1089.2816236834117
c 0 21.26020978631769 -5.201966224311775 6.1066560024529535 -11.30862222676473 6.1066560024529535
S 573.3973335947694 1110.5418334697295 573.3973335947694 1089.2816236834117
s 5.201966224311775 -6.1066560024529535 11.30862222676473 -6.1066560024529535
S 596.014578048299 1068.021413897094 596.014578048299 1089.2816236834117
z" fill="none" stroke="none"></path>
<circle cx="0" cy="0" r="11.252948484406634" fill="#8f7787">
  <animateMotion begin="-9.12901145562607s" dur="14.76s" repeatCount="indefinite">
    <mpath xlink:href="#path9"></mpath>
  </animateMotion>
</circle><path id="path10" d="M 431.28381934224495 781.6543134092856
c 0 34.9888238783754 -8.56109520428334 10.049981326767401 -18.611076531050742 10.049981326767401
S 394.06166628014347 816.6431372876609 394.06166628014347 781.6543134092856
s 8.56109520428334 -10.049981326767401 18.611076531050742 -10.049981326767401
S 431.28381934224495 746.6654895309102 431.28381934224495 781.6543134092856
z" fill="none" stroke="none"></path>
<circle cx="0" cy="0" r="9.887382324081827" fill="#6d71b2">
  <animateMotion begin="-7.300298174272441s" dur="14.76s" repeatCount="indefinite">
    <mpath xlink:href="#path10"></mpath>
  </animateMotion>
</circle><path id="path11" d="M 981.7112472230328 825.8471571178529
c 0 21.961260223529507 -5.3734998419274325 6.308021553566986 -11.681521395494418 6.308021553566986
S 958.348204432044 847.8084173413824 958.348204432044 825.8471571178529
s 5.3734998419274325 -6.308021553566986 11.681521395494418 -6.308021553566986
S 981.7112472230328 803.8858968943234 981.7112472230328 825.8471571178529
z" fill="none" stroke="none"></path>
<circle cx="0" cy="0" r="9.537659923104828" fill="#f48907">
  <animateMotion begin="-8.814701395450923s" dur="14.76s" repeatCount="indefinite">
    <mpath xlink:href="#path11"></mpath>
  </animateMotion>
</circle><path id="path12" d="M 2287.4674407906214 922.4410667526446
c 0 25.952497923832812 -6.350079279235687 7.454440893015808 -13.804520172251495 7.454440893015808
S 2259.858400446118 948.3935646764774 2259.858400446118 922.4410667526446
s 6.350079279235687 -7.454440893015808 13.804520172251495 -7.454440893015808
S 2287.4674407906214 896.4885688288118 2287.4674407906214 922.4410667526446
z" fill="none" stroke="none"></path>
<circle cx="0" cy="0" r="10.05828110812498" fill="#d28332">
  <animateMotion begin="-6.90847282306591s" dur="14.76s" repeatCount="indefinite">
    <mpath xlink:href="#path12"></mpath>
  </animateMotion>
</circle><path id="path13" d="M 1882.7110452351974 672.1489310231664
c 0 25.84781763245093 -6.324466016450758 7.424373149746543 -13.748839166197302 7.424373149746543
S 1855.2133669028028 697.9967486556174 1855.2133669028028 672.1489310231664
s 6.324466016450758 -7.424373149746543 13.748839166197302 -7.424373149746543
S 1882.7110452351974 646.3011133907154 1882.7110452351974 672.1489310231664
z" fill="none" stroke="none"></path>
<circle cx="0" cy="0" r="11.916484154400571" fill="#f48907">
  <animateMotion begin="-10.271306682531861s" dur="14.76s" repeatCount="indefinite">
    <mpath xlink:href="#path13"></mpath>
  </animateMotion>
</circle><path id="path14" d="M 1266.2915955504739 1232.467622697284
c 0 33.28873869519147 -8.14511691478089 9.561658986916699 -17.70677590169759 9.561658986916699
S 1230.878043747079 1265.7563613924756 1230.878043747079 1232.467622697284
s 8.14511691478089 -9.561658986916699 17.70677590169759 -9.561658986916699
S 1266.2915955504739 1199.1788840020924 1266.2915955504739 1232.467622697284
z" fill="none" stroke="none"></path>
<circle cx="0" cy="0" r="7.462371686002439" fill="#d28332">
  <animateMotion begin="-4.530597191649438s" dur="14.76s" repeatCount="indefinite">
    <mpath xlink:href="#path14"></mpath>
  </animateMotion>
</circle><path id="path15" d="M 2413.5403277678406 185.95513953918976
c 0 28.841836585514873 -7.057045121987681 8.284357317115974 -15.341402439103655 8.284357317115974
S 2382.8575228896334 214.79697612470463 2382.8575228896334 185.95513953918976
s 7.057045121987681 -8.284357317115974 15.341402439103655 -8.284357317115974
S 2413.5403277678406 157.1133029536749 2413.5403277678406 185.95513953918976
z" fill="none" stroke="none"></path>
<circle cx="0" cy="0" r="6.3361324686952045" fill="#d28332">
  <animateMotion begin="-2.9014756110578546s" dur="14.76s" repeatCount="indefinite">
    <mpath xlink:href="#path15"></mpath>
  </animateMotion>
</circle><path id="path16" d="M 1122.6318022321934 831.8634978176528
c 0 34.8301315337066 -8.522266226332464 10.004399483085937 -18.526665709418403 10.004399483085937
S 1085.5784708133565 866.6936293513594 1085.5784708133565 831.8634978176528
s 8.522266226332464 -10.004399483085937 18.526665709418403 -10.004399483085937
S 1122.6318022321934 797.0333662839463 1122.6318022321934 831.8634978176528
z" fill="none" stroke="none"></path>
<circle cx="0" cy="0" r="6.655881732197505" fill="#d28332">
  <animateMotion begin="-14.365169084008517s" dur="14.76s" repeatCount="indefinite">
    <mpath xlink:href="#path16"></mpath>
  </animateMotion>
</circle><path id="path17" d="M 1939.693062453457 969.1201740337589
c 0 25.748498937635834 -6.300164633676852 7.395845439533697 -13.69601007321055 7.395845439533697
S 1912.301042307036 994.8686729713947 1912.301042307036 969.1201740337589
s 6.300164633676852 -7.395845439533697 13.69601007321055 -7.395845439533697
S 1939.693062453457 943.371675096123 1939.693062453457 969.1201740337589
z" fill="none" stroke="none"></path>
<circle cx="0" cy="0" r="12.206428185395717" fill="#8f7787">
  <animateMotion begin="-13.793419544482742s" dur="14.76s" repeatCount="indefinite">
    <mpath xlink:href="#path17"></mpath>
  </animateMotion>
</circle><path id="path18" d="M 1270.323888407811 495.4585173983224
c 0 19.694563063386223 -4.818882451679607 5.656948965015191 -10.475831416694799 5.656948965015191
S 1249.3722255744215 515.1530804617086 1249.3722255744215 495.4585173983224
s 4.818882451679607 -5.656948965015191 10.475831416694799 -5.656948965015191
S 1270.323888407811 475.76395433493616 1270.323888407811 495.4585173983224
z" fill="none" stroke="none"></path>
<circle cx="0" cy="0" r="6.6323474721311575" fill="#d28332">
  <animateMotion begin="-13.557613079660117s" dur="14.76s" repeatCount="indefinite">
    <mpath xlink:href="#path18"></mpath>
  </animateMotion>
</circle><path id="path19" d="M 453.95572997857073 622.064985398348
c 0 34.87355869055361 -8.532892020029074 10.016873240903696 -18.54976526093277 10.016873240903696
S 416.8561994567052 656.9385440889016 416.8561994567052 622.064985398348
s 8.532892020029074 -10.016873240903696 18.54976526093277 -10.016873240903696
S 453.95572997857073 587.1914267077943 453.95572997857073 622.064985398348
z" fill="none" stroke="none"></path>
<circle cx="0" cy="0" r="8.471044069980566" fill="#b17d5d">
  <animateMotion begin="-10.412725988224127s" dur="14.76s" repeatCount="indefinite">
    <mpath xlink:href="#path19"></mpath>
  </animateMotion>
</circle><path id="path20" d="M 727.8891351758114 279.3147702863669
c 0 22.287871017804765 -5.453415249037336 6.401835292348178 -11.855250541385514 6.401835292348178
S 704.1786340930403 301.6026413041717 704.1786340930403 279.3147702863669
s 5.453415249037336 -6.401835292348178 11.855250541385514 -6.401835292348178
S 727.8891351758114 257.02689926856215 727.8891351758114 279.3147702863669
z" fill="none" stroke="none"></path>
<circle cx="0" cy="0" r="11.167147431889406" fill="#b17d5d">
  <animateMotion begin="-5.21726451491942s" dur="14.76s" repeatCount="indefinite">
    <mpath xlink:href="#path20"></mpath>
  </animateMotion>
</circle><path id="path21" d="M 2201.377528575601 266.33396294112134
c 0 33.93973097547283 -8.304402259956117 9.748646131252833 -18.05304839120895 9.748646131252833
S 2165.271431793183 300.2736939165942 2165.271431793183 266.33396294112134
s 8.304402259956117 -9.748646131252833 18.05304839120895 -9.748646131252833
S 2201.377528575601 232.39423196564852 2201.377528575601 266.33396294112134
z" fill="none" stroke="none"></path>
<circle cx="0" cy="0" r="10.751531337364868" fill="#b17d5d">
  <animateMotion begin="-11.363588319506263s" dur="14.76s" repeatCount="indefinite">
    <mpath xlink:href="#path21"></mpath>
  </animateMotion>
</circle><path id="path22" d="M 1724.1473718588836 474.34302896984235
c 0 20.455323367100597 -5.005025930248018 5.875465222465065 -10.880491152713084 5.875465222465065
S 1702.3863895534573 494.79835233694297 1702.3863895534573 474.34302896984235
s 5.005025930248018 -5.875465222465065 10.880491152713084 -5.875465222465065
S 1724.1473718588836 453.88770560274173 1724.1473718588836 474.34302896984235
z" fill="none" stroke="none"></path>
<circle cx="0" cy="0" r="9.715943659219404" fill="#6d71b2">
  <animateMotion begin="-8.584065828286352s" dur="14.76s" repeatCount="indefinite">
    <mpath xlink:href="#path22"></mpath>
  </animateMotion>
</circle><path id="path23" d="M 1896.2550664152975 511.5735480658978
c 0 25.668531697223756 -6.280598181235599 7.372876125798313 -13.653474307033912 7.372876125798313
S 1868.9481178012295 537.2420797631215 1868.9481178012295 511.5735480658978
s 6.280598181235599 -7.372876125798313 13.653474307033912 -7.372876125798313
S 1896.2550664152975 485.90501636867407 1896.2550664152975 511.5735480658978
z" fill="none" stroke="none"></path>
<circle cx="0" cy="0" r="8.37578270789007" fill="#6d71b2">
  <animateMotion begin="-0.9358017004963911s" dur="14.76s" repeatCount="indefinite">
    <mpath xlink:href="#path23"></mpath>
  </animateMotion>
</circle><path id="path24" d="M 1300.844844782736 1101.537820024747
c 0 36.28505871297882 -8.878259046792689 10.42230409840881 -19.3005631452015 10.42230409840881
S 1262.2437184923328 1137.8228787377257 1262.2437184923328 1101.537820024747
s 8.878259046792689 -10.42230409840881 19.3005631452015 -10.42230409840881
S 1300.844844782736 1065.2527613117682 1300.844844782736 1101.537820024747
z" fill="none" stroke="none"></path>
<circle cx="0" cy="0" r="6.912071567458611" fill="#b17d5d">
  <animateMotion begin="-5.492750268457299s" dur="14.76s" repeatCount="indefinite">
    <mpath xlink:href="#path24"></mpath>
  </animateMotion>
</circle><path id="path25" d="M 2419.8175564299486 555.5818714169012
c 0 26.730330317854367 -6.540399971389897 7.677860835979446 -14.218260807369344 7.677860835979446
S 2391.3810348152097 582.3122017347556 2391.3810348152097 555.5818714169012
s 6.540399971389897 -7.677860835979446 14.218260807369344 -7.677860835979446
S 2419.8175564299486 528.8515410990468 2419.8175564299486 555.5818714169012
z" fill="none" stroke="none"></path>
<circle cx="0" cy="0" r="11.390913542537398" fill="#d28332">
  <animateMotion begin="-0.505320428383521s" dur="14.76s" repeatCount="indefinite">
    <mpath xlink:href="#path25"></mpath>
  </animateMotion>
</circle><path id="path26" d="M 547.8730552097393 166.1181766935211
c 0 19.160303119513934 -4.688159273923621 5.503491321562513 -10.191650595486134 5.503491321562513
S 527.4897540187669 185.27847981303503 527.4897540187669 166.1181766935211
s 4.688159273923621 -5.503491321562513 10.191650595486134 -5.503491321562513
S 547.8730552097393 146.95787357400715 547.8730552097393 166.1181766935211
z" fill="none" stroke="none"></path>
<circle cx="0" cy="0" r="9.462351474199403" fill="#f48907">
  <animateMotion begin="-14.493893770819907s" dur="14.76s" repeatCount="indefinite">
    <mpath xlink:href="#path26"></mpath>
  </animateMotion>
</circle><path id="path27" d="M 941.6720690041786 378.7006074591714
c 0 19.429990422830684 -4.754146592820273 5.580954695919452 -10.335101288739725 5.580954695919452
S 921.0018664266993 398.1305978820021 921.0018664266993 378.7006074591714
s 4.754146592820273 -5.580954695919452 10.335101288739725 -5.580954695919452
S 941.6720690041786 359.2706170363407 941.6720690041786 378.7006074591714
z" fill="none" stroke="none"></path>
<circle cx="0" cy="0" r="10.426652046033192" fill="#b17d5d">
  <animateMotion begin="-2.6625356550179715s" dur="14.76s" repeatCount="indefinite">
    <mpath xlink:href="#path27"></mpath>
  </animateMotion>
</circle><path id="path28" d="M 1429.3407598559072 140.72434016699836
c 0 24.401915474834905 -5.970681445970242 7.009060827878112 -12.979742273848354 7.009060827878112
S 1403.3812753082104 165.12625564183327 1403.3812753082104 140.72434016699836
s 5.970681445970242 -7.009060827878112 12.979742273848354 -7.009060827878112
S 1429.3407598559072 116.32242469216345 1429.3407598559072 140.72434016699836
z" fill="none" stroke="none"></path>
<circle cx="0" cy="0" r="8.65282051247635" fill="#f48907">
  <animateMotion begin="-6.441979164405381s" dur="14.76s" repeatCount="indefinite">
    <mpath xlink:href="#path28"></mpath>
  </animateMotion>
</circle><path id="path29" d="M 1536.147857298745 76.8405674802459
c 0 34.722624877850286 -8.495961406282516 9.973519911722956 -18.46948131800547 9.973519911722956
S 1499.2088946627343 111.56319235809619 1499.2088946627343 76.8405674802459
s 8.495961406282516 -9.973519911722956 18.46948131800547 -9.973519911722956
S 1536.147857298745 42.11794260239561 1536.147857298745 76.8405674802459
z" fill="none" stroke="none"></path>
<circle cx="0" cy="0" r="11.123673119604033" fill="#d28332">
  <animateMotion begin="-9.914028417395258s" dur="14.76s" repeatCount="indefinite">
    <mpath xlink:href="#path29"></mpath>
  </animateMotion>
</circle><path id="path30" d="M 501.5930788356856 59.858296292548346
c 0 27.610262648544325 -6.755702562941695 7.930607356496774 -14.68630991943847 7.930607356496774
S 472.22045899680865 87.46855894109267 472.22045899680865 59.858296292548346
s 6.755702562941695 -7.930607356496774 14.68630991943847 -7.930607356496774
S 501.5930788356856 32.248033644004025 501.5930788356856 59.858296292548346
z" fill="none" stroke="none"></path>
<circle cx="0" cy="0" r="8.52688264875869" fill="#6d71b2">
  <animateMotion begin="-11.978984987582066s" dur="14.76s" repeatCount="indefinite">
    <mpath xlink:href="#path30"></mpath>
  </animateMotion>
</circle><path id="path31" d="M 1363.7123185386874 905.7992397593155
c 0 24.279320985000208 -5.940684921861752 6.973847516968145 -12.914532438829898 6.973847516968145
S 1337.8832536610278 930.0785607443157 1337.8832536610278 905.7992397593155
s 5.940684921861752 -6.973847516968145 12.914532438829898 -6.973847516968145
S 1363.7123185386874 881.5199187743152 1363.7123185386874 905.7992397593155
z" fill="none" stroke="none"></path>
<circle cx="0" cy="0" r="7.108968021298774" fill="#b17d5d">
  <animateMotion begin="-11.785456028803647s" dur="14.76s" repeatCount="indefinite">
    <mpath xlink:href="#path31"></mpath>
  </animateMotion>
</circle><path id="path32" d="M 791.3643154355431 831.7340019098482
c 0 34.62316119620696 -8.471624548008084 9.944950556357318 -18.416575104365403 9.944950556357318
S 754.5311652268123 866.3571631060552 754.5311652268123 831.7340019098482
s 8.471624548008084 -9.944950556357318 18.416575104365403 -9.944950556357318
S 791.3643154355431 797.1108407136412 791.3643154355431 831.7340019098482
z" fill="none" stroke="none"></path>
<circle cx="0" cy="0" r="8.062469601837533" fill="#8f7787">
  <animateMotion begin="-0.12020035292719668s" dur="14.76s" repeatCount="indefinite">
    <mpath xlink:href="#path32"></mpath>
  </animateMotion>
</circle><path id="path33" d="M 1215.9706392537887 600.0886003806307
c 0 29.533470683247376 -7.226274741645634 8.48301817497531 -15.709292916620946 8.48301817497531
S 1184.5520534205466 629.6220710638781 1184.5520534205466 600.0886003806307
s 7.226274741645634 -8.48301817497531 15.709292916620946 -8.48301817497531
S 1215.9706392537887 570.5551296973833 1215.9706392537887 600.0886003806307
z" fill="none" stroke="none"></path>
<circle cx="0" cy="0" r="12.361756027204397" fill="#d28332">
  <animateMotion begin="-2.0718528390235202s" dur="14.76s" repeatCount="indefinite">
    <mpath xlink:href="#path33"></mpath>
  </animateMotion>
</circle><path id="path34" d="M 76.36466710353761 575.3968939873456
c 0 36.97727520442267 -9.047631167039588 10.621132239568214 -19.668763406607802 10.621132239568214
S 37.02714029032201 612.3741691917683 37.02714029032201 575.3968939873456
s 9.047631167039588 -10.621132239568214 19.668763406607802 -10.621132239568214
S 76.36466710353761 538.419618782923 76.36466710353761 575.3968939873456
z" fill="none" stroke="none"></path>
<circle cx="0" cy="0" r="10.93036055781385" fill="#f48907">
  <animateMotion begin="-8.810970387818072s" dur="14.76s" repeatCount="indefinite">
    <mpath xlink:href="#path34"></mpath>
  </animateMotion>
</circle><path id="path35" d="M 1992.8937627457183 924.4325471420543
c 0 23.180594601106502 -5.671847615164356 6.658255896062506 -12.330103511226863 6.658255896062506
S 1968.2335557232648 947.6131417431608 1968.2335557232648 924.4325471420543
s 5.671847615164356 -6.658255896062506 12.330103511226863 -6.658255896062506
S 1992.8937627457183 901.2519525409479 1992.8937627457183 924.4325471420543
z" fill="none" stroke="none"></path>
<circle cx="0" cy="0" r="8.64201663678755" fill="#6d71b2">
  <animateMotion begin="-5.301802891739606s" dur="14.76s" repeatCount="indefinite">
    <mpath xlink:href="#path35"></mpath>
  </animateMotion>
</circle><path id="path36" d="M 2451.3533643584788 582.5099185513743
c 0 24.044578006605256 -5.883247810126817 6.906421342322786 -12.789669152449603 6.906421342322786
S 2425.7740260535793 606.5544965579795 2425.7740260535793 582.5099185513743
s 5.883247810126817 -6.906421342322786 12.789669152449603 -6.906421342322786
S 2451.3533643584788 558.4653405447691 2451.3533643584788 582.5099185513743
z" fill="none" stroke="none"></path>
<circle cx="0" cy="0" r="9.971489202368232" fill="#d28332">
  <animateMotion begin="-14.3466274735169s" dur="14.76s" repeatCount="indefinite">
    <mpath xlink:href="#path36"></mpath>
  </animateMotion>
</circle><path id="path37" d="M 1999.7727488154283 1175.4560374420132
c 0 20.65402099209821 -5.053643434236796 5.932537944538848 -10.986181378775644 5.932537944538848
S 1977.800386057877 1196.1100584341114 1977.800386057877 1175.4560374420132
s 5.053643434236796 -5.932537944538848 10.986181378775644 -5.932537944538848
S 1999.7727488154283 1154.802016449915 1999.7727488154283 1175.4560374420132
z" fill="none" stroke="none"></path>
<circle cx="0" cy="0" r="9.423763590095668" fill="#6d71b2">
  <animateMotion begin="-12.9596142137382s" dur="14.76s" repeatCount="indefinite">
    <mpath xlink:href="#path37"></mpath>
  </animateMotion>
</circle><path id="path38" d="M 1784.8176928478083 1024.9581282850008
c 0 22.808416654849736 -5.580782798527062 6.551353720010031 -12.132136518537093 6.551353720010031
S 1760.5534198107343 1047.7665449398505 1760.5534198107343 1024.9581282850008
s 5.580782798527062 -6.551353720010031 12.132136518537093 -6.551353720010031
S 1784.8176928478083 1002.1497116301512 1784.8176928478083 1024.9581282850008
z" fill="none" stroke="none"></path>
<circle cx="0" cy="0" r="8.589517585381138" fill="#6d71b2">
  <animateMotion begin="-10.02572449141887s" dur="14.76s" repeatCount="indefinite">
    <mpath xlink:href="#path38"></mpath>
  </animateMotion>
</circle><path id="path39" d="M 2306.0736818079645 991.6024000273496
c 0 34.73424874809869 -8.498805544747553 9.976858682964519 -18.475664227712073 9.976858682964519
S 2269.1223533525404 1026.3366487754483 2269.1223533525404 991.6024000273496
s 8.498805544747553 -9.976858682964519 18.475664227712073 -9.976858682964519
S 2306.0736818079645 956.8681512792509 2306.0736818079645 991.6024000273496
z" fill="none" stroke="none"></path>
<circle cx="0" cy="0" r="9.288170512995139" fill="#6d71b2">
  <animateMotion begin="-10.727116828865615s" dur="14.76s" repeatCount="indefinite">
    <mpath xlink:href="#path39"></mpath>
  </animateMotion>
</circle><path id="path40" d="M 2455.2737651746897 1224.5866770989642
c 0 37.396586886875674 -9.150228706363196 10.741572829208971 -19.891801535572167 10.741572829208971
S 2415.4901621035456 1261.9832639858398 2415.4901621035456 1224.5866770989642
s 9.150228706363196 -10.741572829208971 19.891801535572167 -10.741572829208971
S 2455.2737651746897 1187.1900902120885 2455.2737651746897 1224.5866770989642
z" fill="none" stroke="none"></path>
<circle cx="0" cy="0" r="11.237113967111572" fill="#6d71b2">
  <animateMotion begin="-3.9136332502739624s" dur="14.76s" repeatCount="indefinite">
    <mpath xlink:href="#path40"></mpath>
  </animateMotion>
</circle><path id="path41" d="M 1371.174054081669 220.5371868733655
c 0 36.1340862678063 -8.841318980420692 10.37893967266777 -19.22025865308846 10.37893967266777
S 1332.7335367754922 256.6712731411718 1332.7335367754922 220.5371868733655
s 8.841318980420692 -10.37893967266777 19.22025865308846 -10.37893967266777
S 1371.174054081669 184.4031006055592 1371.174054081669 220.5371868733655
z" fill="none" stroke="none"></path>
<circle cx="0" cy="0" r="12.064157523738746" fill="#8f7787">
  <animateMotion begin="-2.398161684155918s" dur="14.76s" repeatCount="indefinite">
    <mpath xlink:href="#path41"></mpath>
  </animateMotion>
</circle><path id="path42" d="M 1423.0928390037875 441.50610139609364
c 0 30.431533043955888 -7.446013404372184 8.74097225730648 -16.186985661678662 8.74097225730648
S 1390.7188676804303 471.9376344400495 1390.7188676804303 441.50610139609364
s 7.446013404372184 -8.74097225730648 16.186985661678662 -8.74097225730648
S 1423.0928390037875 411.07456835213776 1423.0928390037875 441.50610139609364
z" fill="none" stroke="none"></path>
<circle cx="0" cy="0" r="11.75517310672596" fill="#f48907">
  <animateMotion begin="-14.195888250118093s" dur="14.76s" repeatCount="indefinite">
    <mpath xlink:href="#path42"></mpath>
  </animateMotion>
</circle><path id="path43" d="M 347.0220351433484 936.2519472920932
c 0 34.938159334805235 -8.548698560643833 10.035428745103632 -18.584127305747465 10.035428745103632
S 309.85378053185343 971.1901066268985 309.85378053185343 936.2519472920932
s 8.548698560643833 -10.035428745103632 18.584127305747465 -10.035428745103632
S 347.0220351433484 901.3137879572879 347.0220351433484 936.2519472920932
z" fill="none" stroke="none"></path>
<circle cx="0" cy="0" r="11.290345729939025" fill="#d28332">
  <animateMotion begin="-14.661574287189485s" dur="14.76s" repeatCount="indefinite">
    <mpath xlink:href="#path43"></mpath>
  </animateMotion>
</circle><path id="path44" d="M 2312.1160621133354 1072.1711230713286
c 0 29.500129518256248 -7.218116797020144 8.473441457371475 -15.69155825439162 8.473441457371475
S 2280.7329456045522 1101.6712525895848 2280.7329456045522 1072.1711230713286
s 7.218116797020144 -8.473441457371475 15.69155825439162 -8.473441457371475
S 2312.1160621133354 1042.6709935530723 2312.1160621133354 1072.1711230713286
z" fill="none" stroke="none"></path>
<circle cx="0" cy="0" r="7.313442381213196" fill="#6d71b2">
  <animateMotion begin="-9.030747474183071s" dur="14.76s" repeatCount="indefinite">
    <mpath xlink:href="#path44"></mpath>
  </animateMotion>
</circle><path id="path45" d="M 649.6235211016123 1300.410561298734
c 0 35.17812857556107 -8.607414438701111 10.10435608021435 -18.71177051891546 10.10435608021435
S 612.1999800637813 1335.588689874295 612.1999800637813 1300.410561298734
s 8.607414438701111 -10.10435608021435 18.71177051891546 -10.10435608021435
S 649.6235211016123 1265.232432723173 649.6235211016123 1300.410561298734
z" fill="none" stroke="none"></path>
<circle cx="0" cy="0" r="11.25457383485424" fill="#d28332">
  <animateMotion begin="-12.701301883119525s" dur="14.76s" repeatCount="indefinite">
    <mpath xlink:href="#path45"></mpath>
  </animateMotion>
</circle><path id="path46" d="M 1808.1866241637456 138.79316311879117
c 0 29.14307218538785 -7.130751704935324 8.370882436228426 -15.501634141163748 8.370882436228426
S 1777.183355881418 167.93623530417904 1777.183355881418 138.79316311879117
s 7.130751704935324 -8.370882436228426 15.501634141163748 -8.370882436228426
S 1808.1866241637456 109.65009093340332 1808.1866241637456 138.79316311879117
z" fill="none" stroke="none"></path>
<circle cx="0" cy="0" r="11.16856400711758" fill="#b17d5d">
  <animateMotion begin="-12.2866853384874s" dur="14.76s" repeatCount="indefinite">
    <mpath xlink:href="#path46"></mpath>
  </animateMotion>
</circle><path id="path47" d="M 59.95402345593517 303.78332084644455
c 0 35.93515879402533 -8.792645236835984 10.321800930198766 -19.11444616703475 10.321800930198766
S 21.725131121865672 339.71847964046987 21.725131121865672 303.78332084644455
s 8.792645236835984 -10.321800930198766 19.11444616703475 -10.321800930198766
S 59.95402345593517 267.84816205241924 59.95402345593517 303.78332084644455
z" fill="none" stroke="none"></path>
<circle cx="0" cy="0" r="10.430802901421988" fill="#d28332">
  <animateMotion begin="-13.694163203199283s" dur="14.76s" repeatCount="indefinite">
    <mpath xlink:href="#path47"></mpath>
  </animateMotion>
</circle><path id="path48" d="M 1970.9214565622233 1300.828394932413
c 0 27.781055772687527 -6.797492369912905 7.979664955984716 -14.77715732589762 7.979664955984716
S 1941.367141910428 1328.6094507051005 1941.367141910428 1300.828394932413
s 6.797492369912905 -7.979664955984716 14.77715732589762 -7.979664955984716
S 1970.9214565622233 1273.0473391597254 1970.9214565622233 1300.828394932413
z" fill="none" stroke="none"></path>
<circle cx="0" cy="0" r="11.842607389514072" fill="#6d71b2">
  <animateMotion begin="-6.727736048433908s" dur="14.76s" repeatCount="indefinite">
    <mpath xlink:href="#path48"></mpath>
  </animateMotion>
</circle><path id="path49" d="M 2536.122959837459 788.9020201480382
c 0 34.369565987569175 -8.409574656532882 9.872109379408167 -18.28168403594105 9.872109379408167
S 2499.559591765577 823.2715861356074 2499.559591765577 788.9020201480382
s 8.409574656532882 -9.872109379408167 18.28168403594105 -9.872109379408167
S 2536.122959837459 754.532454160469 2536.122959837459 788.9020201480382
z" fill="none" stroke="none"></path>
<circle cx="0" cy="0" r="8.11002048613579" fill="#8f7787">
  <animateMotion begin="-14.136061420639459s" dur="14.76s" repeatCount="indefinite">
    <mpath xlink:href="#path49"></mpath>
  </animateMotion>
</circle><path id="path50" d="M 2544.9982423345346 105.47550752497143
c 0 20.010229293449818 -4.8961199335036785 5.747619052373884 -10.643738985877562 5.747619052373884
S 2523.7107643627796 125.48573681842126 2523.7107643627796 105.47550752497143
s 4.8961199335036785 -5.747619052373884 10.643738985877562 -5.747619052373884
S 2544.9982423345346 85.46527823152161 2544.9982423345346 105.47550752497143
z" fill="none" stroke="none"></path>
<circle cx="0" cy="0" r="8.056524129111207" fill="#b17d5d">
  <animateMotion begin="-13.986805051607671s" dur="14.76s" repeatCount="indefinite">
    <mpath xlink:href="#path50"></mpath>
  </animateMotion>
</circle><path id="path51" d="M 631.1055680723329 871.369429158951
c 0 31.204487536863752 -7.635140567530492 8.962991101014056 -16.59813166854455 8.962991101014056
S 597.9093047352438 902.5739166958148 597.9093047352438 871.369429158951
s 7.635140567530492 -8.962991101014056 16.59813166854455 -8.962991101014056
S 631.1055680723329 840.1649416220872 631.1055680723329 871.369429158951
z" fill="none" stroke="none"></path>
<circle cx="0" cy="0" r="8.863497522649764" fill="#d28332">
  <animateMotion begin="-6.381468949335177s" dur="14.76s" repeatCount="indefinite">
    <mpath xlink:href="#path51"></mpath>
  </animateMotion>
</circle><path id="path52" d="M 2536.08205500949 71.08723216965453
c 0 22.059491074901512 -5.397535050241859 6.33623679811001 -11.733771848351868 6.33623679811001
S 2512.6145113127864 93.14672324455604 2512.6145113127864 71.08723216965453
s 5.397535050241859 -6.33623679811001 11.733771848351868 -6.33623679811001
S 2536.08205500949 49.02774109475301 2536.08205500949 71.08723216965453
z" fill="none" stroke="none"></path>
<circle cx="0" cy="0" r="9.941639736890986" fill="#8f7787">
  <animateMotion begin="-3.7834023419021445s" dur="14.76s" repeatCount="indefinite">
    <mpath xlink:href="#path52"></mpath>
  </animateMotion>
</circle><path id="path53" d="M 2380.228588691643 310.10062726069566
c 0 29.32985075663945 -7.176452844709651 8.424531600311331 -15.600984445020982 8.424531600311331
S 2349.026619801601 339.43047801733513 2349.026619801601 310.10062726069566
s 7.176452844709651 -8.424531600311331 15.600984445020982 -8.424531600311331
S 2380.228588691643 280.7707765040562 2380.228588691643 310.10062726069566
z" fill="none" stroke="none"></path>
<circle cx="0" cy="0" r="7.971161029848975" fill="#b17d5d">
  <animateMotion begin="-10.180365195443127s" dur="14.76s" repeatCount="indefinite">
    <mpath xlink:href="#path53"></mpath>
  </animateMotion>
</circle><path id="path54" d="M 1256.227406767579 14.282108885774921
c 0 24.138118698106464 -5.906135426132432 6.9332894132859 -12.839424839418331 6.9332894132859
S 1230.5485570887422 38.420227583881385 1230.5485570887422 14.282108885774921
s 5.906135426132432 -6.9332894132859 12.839424839418331 -6.9332894132859
S 1256.227406767579 -9.856009812331543 1256.227406767579 14.282108885774921
z" fill="none" stroke="none"></path>
<circle cx="0" cy="0" r="8.46917750498722" fill="#b17d5d">
  <animateMotion begin="-0.7952393126123676s" dur="14.76s" repeatCount="indefinite">
    <mpath xlink:href="#path54"></mpath>
  </animateMotion>
</circle><path id="path55" d="M 499.8794422429373 995.0680127016253
c 0 29.129500563249234 -7.127430988880131 8.366984204337546 -15.494415193217677 8.366984204337546
S 468.89061185650195 1024.1975132648745 468.89061185650195 995.0680127016253
s 7.127430988880131 -8.366984204337546 15.494415193217677 -8.366984204337546
S 499.8794422429373 965.938512138376 499.8794422429373 995.0680127016253
z" fill="none" stroke="none"></path>
<circle cx="0" cy="0" r="6.4060764229292095" fill="#d28332">
  <animateMotion begin="-8.543336235781393s" dur="14.76s" repeatCount="indefinite">
    <mpath xlink:href="#path55"></mpath>
  </animateMotion>
</circle><path id="path56" d="M 1840.8134583862113 1160.8171795629407
c 0 25.524096666733076 -6.245257695051709 7.331389468104181 -13.57664716315589 7.331389468104181
S 1813.6601640598994 1186.341276229674 1813.6601640598994 1160.8171795629407
s 6.245257695051709 -7.331389468104181 13.57664716315589 -7.331389468104181
S 1840.8134583862113 1135.2930828962076 1840.8134583862113 1160.8171795629407
z" fill="none" stroke="none"></path>
<circle cx="0" cy="0" r="11.513060907520245" fill="#8f7787">
  <animateMotion begin="-0.20722208279301899s" dur="14.76s" repeatCount="indefinite">
    <mpath xlink:href="#path56"></mpath>
  </animateMotion>
</circle><path id="path57" d="M 183.4332912172896 1024.2624781286136
c 0 27.956089732577837 -6.840319828183938 8.029940667868102 -14.87026049605204 8.029940667868102
S 153.69277022518548 1052.2185678611913 153.69277022518548 1024.2624781286136
s 6.840319828183938 -8.029940667868102 14.87026049605204 -8.029940667868102
S 183.4332912172896 996.3063883960357 183.4332912172896 1024.2624781286136
z" fill="none" stroke="none"></path>
<circle cx="0" cy="0" r="11.4963701365589" fill="#f48907">
  <animateMotion begin="-1.5527546402418484s" dur="14.76s" repeatCount="indefinite">
    <mpath xlink:href="#path57"></mpath>
  </animateMotion>
</circle><path id="path58" d="M 1642.3242225480524 435.54012437811764
c 0 21.85222174672035 -5.3468202146230634 6.276701991079249 -11.623522205702312 6.276701991079249
S 1619.0771781366477 457.392346124838 1619.0771781366477 435.54012437811764
s 5.3468202146230634 -6.276701991079249 11.623522205702312 -6.276701991079249
S 1642.3242225480524 413.68790263139726 1642.3242225480524 435.54012437811764
z" fill="none" stroke="none"></path>
<circle cx="0" cy="0" r="9.240721903153801" fill="#6d71b2">
  <animateMotion begin="-1.4589098891307581s" dur="14.76s" repeatCount="indefinite">
    <mpath xlink:href="#path58"></mpath>
  </animateMotion>
</circle><path id="path59" d="M 2466.7937948348676 469.1527765659995
c 0 29.46298190921169 -7.209027488424136 8.462771399454422 -15.671798887878555 8.462771399454422
S 2435.4501970591105 498.6157584752112 2435.4501970591105 469.1527765659995
s 7.209027488424136 -8.462771399454422 15.671798887878555 -8.462771399454422
S 2466.7937948348676 439.6897946567878 2466.7937948348676 469.1527765659995
z" fill="none" stroke="none"></path>
<circle cx="0" cy="0" r="10.123090926367622" fill="#d28332">
  <animateMotion begin="-8.416403545590102s" dur="14.76s" repeatCount="indefinite">
    <mpath xlink:href="#path59"></mpath>
  </animateMotion>
</circle><path id="path60" d="M 753.6999511667585 1092.321197817572
c 0 37.483251496449256 -9.171433876790774 10.766465855363084 -19.93789973215386 10.766465855363084
S 713.8241517024509 1129.8044493140212 713.8241517024509 1092.321197817572
s 9.171433876790774 -10.766465855363084 19.93789973215386 -10.766465855363084
S 753.6999511667585 1054.837946321123 753.6999511667585 1092.321197817572
z" fill="none" stroke="none"></path>
<circle cx="0" cy="0" r="6.5805959423220814" fill="#6d71b2">
  <animateMotion begin="-5.635324791835872s" dur="14.76s" repeatCount="indefinite">
    <mpath xlink:href="#path60"></mpath>
  </animateMotion>
</circle></g>
</svg>