<svg xmlns="http://www.w3.org/2000/svg" xmlns:xlink="http://www.w3.org/1999/xlink" style="margin:auto;background:#f1f2f3;display:block;z-index:1;position:relative" width="3000" height="2000" preserveAspectRatio="xMidYMid" viewBox="0 0 3000 2000">
<g transform="translate(1500,1000) scale(1,1) translate(-1500,-1000)"><path id="path0" d="M 1137.3946712935146 748.6623084645872
c 0 34.64184539658219 -8.476196214057342 9.95031729476297 -18.426513508820314 9.95031729476297
S 1100.541644275874 783.3041538611694 1100.541644275874 748.6623084645872
s 8.476196214057342 -9.95031729476297 18.426513508820314 -9.95031729476297
S 1137.3946712935146 714.020463068005 1137.3946712935146 748.6623084645872
z" fill="none" stroke="none"></path>
<circle cx="0" cy="0" r="15.298234062146074" fill="#8587c0">
  <animateMotion begin="-9.376306975962283s" dur="10.71s" repeatCount="indefinite">
    <mpath xlink:href="#path0"></mpath>
  </animateMotion>
</circle><path id="path1" d="M 1834.9158847528222 367.02765527441596
c 0 28.65920735967087 -7.012359247579042 8.231899986288441 -15.244259233867483 8.231899986288441
S 1804.4273662850871 395.6868626340868 1804.4273662850871 367.02765527441596
s 7.012359247579042 -8.231899986288441 15.244259233867483 -8.231899986288441
S 1834.9158847528222 338.3684479147451 1834.9158847528222 367.02765527441596
z" fill="none" stroke="none"></path>
<circle cx="0" cy="0" r="19.10715251163874" fill="#8587c0">
  <animateMotion begin="-0.007740458511234967s" dur="10.71s" repeatCount="indefinite">
    <mpath xlink:href="#path1"></mpath>
  </animateMotion>
</circle><path id="path2" d="M 2190.898941265928 100.57842526974676
c 0 28.30898126284935 -6.926665628143989 8.13130312869077 -15.05796875683476 8.13130312869077
S 2160.7830037522585 128.88740653259612 2160.7830037522585 100.57842526974676
s 6.926665628143989 -8.13130312869077 15.05796875683476 -8.13130312869077
S 2190.898941265928 72.2694440068974 2190.898941265928 100.57842526974676
z" fill="none" stroke="none"></path>
<circle cx="0" cy="0" r="16.934869759888567" fill="#8587c0">
  <animateMotion begin="-8.934525347443776s" dur="10.71s" repeatCount="indefinite">
    <mpath xlink:href="#path2"></mpath>
  </animateMotion>
</circle><path id="path3" d="M 2761.5142277557693 1188.2694703970233
c 0 34.71334758188113 -8.493691429609212 9.970855156497773 -18.464546586106984 9.970855156497773
S 2724.585134583555 1222.9828179789044 2724.585134583555 1188.2694703970233
s 8.493691429609212 -9.970855156497773 18.464546586106984 -9.970855156497773
S 2761.5142277557693 1153.556122815142 2761.5142277557693 1188.2694703970233
z" fill="none" stroke="none"></path>
<circle cx="0" cy="0" r="10.534218909600193" fill="#f3a546">
  <animateMotion begin="-7.829735617363827s" dur="10.71s" repeatCount="indefinite">
    <mpath xlink:href="#path3"></mpath>
  </animateMotion>
</circle><path id="path4" d="M 2754.9469569282232 980.3907307155789
c 0 32.375450454620704 -7.921652770811448 9.299331513561267 -17.220984284372715 9.299331513561267
S 2720.504988359478 1012.7661811701996 2720.504988359478 980.3907307155789
s 7.921652770811448 -9.299331513561267 17.220984284372715 -9.299331513561267
S 2754.9469569282232 948.0152802609582 2754.9469569282232 980.3907307155789
z" fill="none" stroke="none"></path>
<circle cx="0" cy="0" r="10.446215518659443" fill="#d89e65">
  <animateMotion begin="-1.4498967651946415s" dur="10.71s" repeatCount="indefinite">
    <mpath xlink:href="#path4"></mpath>
  </animateMotion>
</circle><path id="path5" d="M 1496.7565912735367 752.4287688622873
c 0 21.976278435418216 -5.377174510793818 6.312335295279701 -11.68950980607352 6.312335295279701
S 1473.3775716613895 774.4050472977054 1473.3775716613895 752.4287688622873
s 5.377174510793818 -6.312335295279701 11.68950980607352 -6.312335295279701
S 1496.7565912735367 730.4524904268691 1496.7565912735367 752.4287688622873
z" fill="none" stroke="none"></path>
<circle cx="0" cy="0" r="11.500514972285261" fill="#f3a546">
  <animateMotion begin="-7.549870705788236s" dur="10.71s" repeatCount="indefinite">
    <mpath xlink:href="#path5"></mpath>
  </animateMotion>
</circle><path id="path6" d="M 2034.4006232456838 1654.7540077383703
c 0 23.213172021524798 -5.67981868611777 6.667613240225208 -12.347431926342978 6.667613240225208
S 2009.7057593929978 1677.967179759895 2009.7057593929978 1654.7540077383703
s 5.67981868611777 -6.667613240225208 12.347431926342978 -6.667613240225208
S 2034.4006232456838 1631.5408357168455 2034.4006232456838 1654.7540077383703
z" fill="none" stroke="none"></path>
<circle cx="0" cy="0" r="16.705255530735347" fill="#a18fa2">
  <animateMotion begin="-4.209996699801285s" dur="10.71s" repeatCount="indefinite">
    <mpath xlink:href="#path6"></mpath>
  </animateMotion>
</circle><path id="path7" d="M 2584.9530607330767 254.59968759234405
c 0 33.369949254648034 -8.164987583584093 9.584985424207416 -17.74997300779151 9.584985424207416
S 2549.4531147174935 287.9696368469921 2549.4531147174935 254.59968759234405
s 8.164987583584093 -9.584985424207416 17.74997300779151 -9.584985424207416
S 2584.9530607330767 221.229738337696 2584.9530607330767 254.59968759234405
z" fill="none" stroke="none"></path>
<circle cx="0" cy="0" r="16.84155931880656" fill="#d89e65">
  <animateMotion begin="-0.7527747070840125s" dur="10.71s" repeatCount="indefinite">
    <mpath xlink:href="#path7"></mpath>
  </animateMotion>
</circle><path id="path8" d="M 2462.594384803114 1975.9323115371753
c 0 31.957663845649254 -7.8194283877652415 9.179328976941807 -16.99875736470705 9.179328976941807
S 2428.5968700736994 2007.8899753828246 2428.5968700736994 1975.9323115371753
s 7.8194283877652415 -9.179328976941807 16.99875736470705 -9.179328976941807
S 2462.594384803114 1943.9746476915261 2462.594384803114 1975.9323115371753
z" fill="none" stroke="none"></path>
<circle cx="0" cy="0" r="12.680293567253397" fill="#8587c0">
  <animateMotion begin="-4.082353164187022s" dur="10.71s" repeatCount="indefinite">
    <mpath xlink:href="#path8"></mpath>
  </animateMotion>
</circle><path id="path9" d="M 854.7214796314851 1624.7430681248345
c 0 29.452550027637344 -7.206475006762328 8.459775007938386 -15.666250014700713 8.459775007938386
S 823.3889796020836 1654.1956181524718 823.3889796020836 1624.7430681248345
s 7.206475006762328 -8.459775007938386 15.666250014700713 -8.459775007938386
S 854.7214796314851 1595.2905180971973 854.7214796314851 1624.7430681248345
z" fill="none" stroke="none"></path>
<circle cx="0" cy="0" r="12.555213993479649" fill="#a18fa2">
  <animateMotion begin="-2.60830455316172s" dur="10.71s" repeatCount="indefinite">
    <mpath xlink:href="#path9"></mpath>
  </animateMotion>
</circle><path id="path10" d="M 125.35111160205363 507.915032309099
c 0 31.445612654949613 -7.694139266636607 9.032250443442974 -16.72638971007958 9.032250443442974
S 91.89833218189446 539.3606449640486 91.89833218189446 507.915032309099
s 7.694139266636607 -9.032250443442974 16.72638971007958 -9.032250443442974
S 125.35111160205363 476.46941965414936 125.35111160205363 507.915032309099
z" fill="none" stroke="none"></path>
<circle cx="0" cy="0" r="14.731270232288873" fill="#d89e65">
  <animateMotion begin="-3.002075865280396s" dur="10.71s" repeatCount="indefinite">
    <mpath xlink:href="#path10"></mpath>
  </animateMotion>
</circle><path id="path11" d="M 2395.5189548882217 416.9437625502311
c 0 19.953370305077588 -4.882207627838133 5.731287215288243 -10.613494843126377 5.731287215288243
S 2374.291965201969 436.8971328553087 2374.291965201969 416.9437625502311
s 4.882207627838133 -5.731287215288243 10.613494843126377 -5.731287215288243
S 2395.5189548882217 396.9903922451535 2395.5189548882217 416.9437625502311
z" fill="none" stroke="none"></path>
<circle cx="0" cy="0" r="17.737541154193266" fill="#8587c0">
  <animateMotion begin="-2.419592267851671s" dur="10.71s" repeatCount="indefinite">
    <mpath xlink:href="#path11"></mpath>
  </animateMotion>
</circle><path id="path12" d="M 1720.1398614130076 1123.3120433295608
c 0 36.15263197648251 -8.845856760203166 10.384266631542848 -19.230123391746016 10.384266631542848
S 1681.6796146295155 1159.4646753060433 1681.6796146295155 1123.3120433295608
s 8.845856760203166 -10.384266631542848 19.230123391746016 -10.384266631542848
S 1720.1398614130076 1087.1594113530782 1720.1398614130076 1123.3120433295608
z" fill="none" stroke="none"></path>
<circle cx="0" cy="0" r="14.20397365830231" fill="#a18fa2">
  <animateMotion begin="-9.950254018142164s" dur="10.71s" repeatCount="indefinite">
    <mpath xlink:href="#path12"></mpath>
  </animateMotion>
</circle><path id="path13" d="M 2024.4088641612523 1424.150766483476
c 0 24.64284469785129 -6.029632213304039 7.0782639025743075 -13.107896115878345 7.0782639025743075
S 1998.1930719294958 1448.7936111813274 1998.1930719294958 1424.150766483476
s 6.029632213304039 -7.0782639025743075 13.107896115878345 -7.0782639025743075
S 2024.4088641612523 1399.5079217856246 2024.4088641612523 1424.150766483476
z" fill="none" stroke="none"></path>
<circle cx="0" cy="0" r="10.357939949801029" fill="#a18fa2">
  <animateMotion begin="-8.106500459243714s" dur="10.71s" repeatCount="indefinite">
    <mpath xlink:href="#path13"></mpath>
  </animateMotion>
</circle><path id="path14" d="M 1998.5916636970896 1522.431216674314
c 0 24.39613370520097 -5.969266757655555 7.007400106813044 -12.9766668644686 7.007400106813044
S 1972.6383299681524 1546.827350379515 1972.6383299681524 1522.431216674314
s 5.969266757655555 -7.007400106813044 12.9766668644686 -7.007400106813044
S 1998.5916636970896 1498.035082969113 1998.5916636970896 1522.431216674314
z" fill="none" stroke="none"></path>
<circle cx="0" cy="0" r="11.926396944657766" fill="#8587c0">
  <animateMotion begin="-6.630535134258796s" dur="10.71s" repeatCount="indefinite">
    <mpath xlink:href="#path14"></mpath>
  </animateMotion>
</circle><path id="path15" d="M 485.0887590273835 1532.826810808731
c 0 26.65897309297461 -6.522940224876765 7.657364611811857 -14.180304836688622 7.657364611811857
S 456.7281493540063 1559.4857839017054 456.7281493540063 1532.826810808731
s 6.522940224876765 -7.657364611811857 14.180304836688622 -7.657364611811857
S 485.0887590273835 1506.1678377157564 485.0887590273835 1532.826810808731
z" fill="none" stroke="none"></path>
<circle cx="0" cy="0" r="19.21102813797798" fill="#d89e65">
  <animateMotion begin="-8.799634573800992s" dur="10.71s" repeatCount="indefinite">
    <mpath xlink:href="#path15"></mpath>
  </animateMotion>
</circle><path id="path16" d="M 1434.273317870903 1047.312019538899
c 0 19.360862612639124 -4.737232341390424 5.56109883554528 -10.298331176935704 5.56109883554528
S 1413.6766555170313 1066.672882151538 1413.6766555170313 1047.312019538899
s 4.737232341390424 -5.56109883554528 10.298331176935704 -5.56109883554528
S 1434.273317870903 1027.95115692626 1434.273317870903 1047.312019538899
z" fill="none" stroke="none"></path>
<circle cx="0" cy="0" r="12.700413323414855" fill="#8587c0">
  <animateMotion begin="-1.2946515429102634s" dur="10.71s" repeatCount="indefinite">
    <mpath xlink:href="#path16"></mpath>
  </animateMotion>
</circle><path id="path17" d="M 592.5654413054173 1585.51956220027
c 0 35.90061548478285 -8.784193150531971 10.31187891584188 -19.096072066373853 10.31187891584188
S 554.3732971726696 1621.4201776850527 554.3732971726696 1585.51956220027
s 8.784193150531971 -10.31187891584188 19.096072066373853 -10.31187891584188
S 592.5654413054173 1549.6189467154873 592.5654413054173 1585.51956220027
z" fill="none" stroke="none"></path>
<circle cx="0" cy="0" r="13.140829806910435" fill="#bc9683">
  <animateMotion begin="-8.619974219795003s" dur="10.71s" repeatCount="indefinite">
    <mpath xlink:href="#path17"></mpath>
  </animateMotion>
</circle><path id="path18" d="M 2266.9049456320013 298.92725401003173
c 0 28.084502891520412 -6.8717400692018025 8.066825298628203 -14.938565367830005 8.066825298628203
S 2237.027814896341 327.01175690155213 2237.027814896341 298.92725401003173
s 6.8717400692018025 -8.066825298628203 14.938565367830005 -8.066825298628203
S 2266.9049456320013 270.84275111851133 2266.9049456320013 298.92725401003173
z" fill="none" stroke="none"></path>
<circle cx="0" cy="0" r="12.814745018529868" fill="#8587c0">
  <animateMotion begin="-4.038242364003623s" dur="10.71s" repeatCount="indefinite">
    <mpath xlink:href="#path18"></mpath>
  </animateMotion>
</circle><path id="path19" d="M 2467.3451727341367 1167.0942803944527
c 0 22.441368791412376 -5.490973214920048 6.4459250783844055 -11.936898293304454 6.4459250783844055
S 2443.471376147528 1189.535649185865 2443.471376147528 1167.0942803944527
s 5.490973214920048 -6.4459250783844055 11.936898293304454 -6.4459250783844055
S 2467.3451727341367 1144.6529116030404 2467.3451727341367 1167.0942803944527
z" fill="none" stroke="none"></path>
<circle cx="0" cy="0" r="11.13417141622638" fill="#d89e65">
  <animateMotion begin="-3.964820828137054s" dur="10.71s" repeatCount="indefinite">
    <mpath xlink:href="#path19"></mpath>
  </animateMotion>
</circle><path id="path20" d="M 2960.520619677557 1056.2758270778127
c 0 33.137111480615886 -8.108016638874098 9.518106489113073 -17.62612312798717 9.518106489113073
S 2925.2683734215825 1089.4129385584286 2925.2683734215825 1056.2758270778127
s 8.108016638874098 -9.518106489113073 17.62612312798717 -9.518106489113073
S 2960.520619677557 1023.1387155971968 2960.520619677557 1056.2758270778127
z" fill="none" stroke="none"></path>
<circle cx="0" cy="0" r="15.388374757744572" fill="#8587c0">
  <animateMotion begin="-7.0571433093909s" dur="10.71s" repeatCount="indefinite">
    <mpath xlink:href="#path20"></mpath>
  </animateMotion>
</circle></g>
</svg>